<svg width="20" height="20" viewBox="0 0 20 20" fill="none" xmlns="http://www.w3.org/2000/svg">
<g id="Layer_1">
<g id="Group 1000002643">
<path id="Vector" d="M1 14.5751C1 10.4767 1 6.37788 1 2.27947C1.02376 2.21347 1.04884 2.14792 1.07128 2.08148C1.27983 1.45583 1.87072 1.00705 2.52849 1.00485C4.37816 0.998691 6.22784 0.997811 8.07751 1.00529C8.76696 1.00793 9.39833 1.52535 9.54968 2.19807C9.68079 2.78061 9.71511 3.37854 9.79211 3.96943C9.92014 4.95499 10.0367 5.94186 10.1586 6.92785C10.2827 7.93145 10.4076 8.93504 10.5322 9.93863C10.6553 10.9303 10.7785 11.9225 10.9022 12.9142C10.999 13.6917 11.0993 14.4682 11.1917 15.2461C11.2317 15.5836 10.9805 15.8528 10.6413 15.8528C10.0033 15.8528 9.36533 15.8528 8.72736 15.8528C6.69025 15.8528 4.65359 15.852 2.61648 15.8528C2.06915 15.8528 1.63269 15.6355 1.29655 15.2065C1.14915 15.0182 1.08228 14.7929 1 14.5743L1 14.5751ZM5.80809 4.78779C5.6189 4.78779 5.46667 4.78515 5.31444 4.78823C4.95058 4.79659 4.77018 4.94971 4.69803 5.30961C4.55195 6.03734 4.40544 6.76506 4.26069 7.49323C4.06314 8.48494 3.86339 9.47622 3.67288 10.4688C3.6126 10.783 3.82247 11.0461 4.13045 11.0742C4.39136 11.098 4.61003 10.911 4.67251 10.6039C4.77018 10.1225 4.86742 9.64121 4.95761 9.15899C4.98225 9.02788 5.03681 8.97112 5.1776 8.97376C5.55775 8.98168 5.93833 8.98388 6.31847 8.97288C6.4839 8.96804 6.53978 9.03492 6.5675 9.18715C6.65726 9.67553 6.75449 10.163 6.86009 10.6483C6.92608 10.9515 7.17863 11.1178 7.45362 11.0606C7.7396 11.0012 7.9024 10.7636 7.8452 10.456C7.73213 9.84712 7.60849 9.23995 7.4875 8.63234C7.26487 7.51479 7.04136 6.3968 6.81741 5.27969C6.76549 5.0201 6.62558 4.84631 6.34927 4.80319C6.15656 4.77327 5.96385 4.79835 5.80854 4.78823L5.80809 4.78779Z" fill="#1C3780"/>
<path id="Vector_2" d="M17.7218 19.0013H9.53638C9.54826 18.9124 9.61909 18.8627 9.67189 18.802C10.3574 18.0171 11.0393 17.2291 11.7323 16.4508C12.094 16.0447 12.2524 15.5796 12.1903 15.045C12.0997 14.261 11.9959 13.4787 11.8977 12.6955C11.7741 11.7091 11.6509 10.7231 11.5277 9.73667C11.4036 8.74452 11.28 7.75236 11.1559 6.76065C11.0583 5.97749 10.9606 5.19432 10.8625 4.41116C10.8462 4.28092 10.851 4.19425 11.0319 4.19469C13.1627 4.20085 15.2939 4.19865 17.4248 4.19909C17.6694 4.19909 17.903 4.25453 18.1155 4.37332C18.7042 4.70154 18.9986 5.20664 18.9986 5.88113C18.9986 8.69128 18.9986 11.5014 18.9986 14.3116C18.9986 15.3477 18.9986 16.3839 18.9986 17.4205C18.9986 17.8239 18.86 18.1737 18.5982 18.4799C18.3637 18.7545 18.0526 18.894 17.7209 19.0022L17.7218 19.0013ZM13.8944 9.00234V9.00322C13.6779 9.00322 13.461 9.00322 13.2445 9.00322C13.2326 9.00322 13.2212 9.00322 13.2093 9.00366C12.8855 9.01994 12.6646 9.21617 12.6514 9.49864C12.6387 9.77011 12.8384 9.98966 13.1574 10.0213C13.2898 10.0345 13.3374 10.0961 13.3739 10.2048C13.6176 10.9259 13.9621 11.5947 14.4382 12.1909C14.5394 12.318 14.5244 12.3928 14.4025 12.4896C14.0677 12.7549 13.7408 13.0304 13.4104 13.3014C13.2507 13.4321 13.153 13.5918 13.1891 13.8047C13.2573 14.2069 13.6814 14.36 14.0272 14.1013C14.388 13.8311 14.7347 13.5425 15.074 13.2455C15.261 13.0818 15.2627 13.0845 15.4449 13.2415C15.8043 13.5513 16.1779 13.8439 16.5628 14.1206C16.9003 14.3635 17.3223 14.1853 17.3751 13.788C17.4032 13.5751 17.2994 13.4184 17.137 13.2913C16.8101 13.0348 16.4819 12.78 16.1594 12.5178C15.9654 12.3598 15.9676 12.3528 16.1172 12.161C16.5813 11.5648 16.9518 10.9176 17.1885 10.1982C17.2259 10.0847 17.2844 10.0359 17.4111 10.0213C17.7856 9.97778 17.9875 9.67947 17.8815 9.35477C17.8106 9.1383 17.6122 9.00762 17.3275 9.00498C16.8708 9.00058 16.4141 8.99926 15.9574 9.00498C15.8188 9.00674 15.7709 8.95703 15.7748 8.82107C15.7792 8.66972 15.7907 8.51705 15.7542 8.36657C15.6961 8.12679 15.5029 7.96223 15.2689 7.95915C15.03 7.95563 14.8293 8.12503 14.7713 8.37361C14.7361 8.52453 14.7493 8.6772 14.7519 8.82855C14.7541 8.95439 14.7119 9.00894 14.5803 9.00498C14.3524 8.99794 14.1236 9.00322 13.8953 9.00322L13.8944 9.00234Z" fill="#1C3780"/>
<path id="Vector_3" d="M8.54248 16.8802C8.94638 16.8802 9.34984 16.8797 9.75374 16.8806C9.79862 16.8806 9.85933 16.8635 9.88353 16.9083C9.91433 16.9664 9.85317 17.0029 9.82018 17.0394C9.30232 17.6123 8.78138 18.1825 8.26573 18.7576C8.17817 18.8548 8.10294 18.8416 8.00702 18.7822C7.53756 18.4914 7.27841 18.0686 7.21242 17.5234C7.1935 17.3668 7.18294 17.2088 7.15522 17.0535C7.13014 16.9145 7.1869 16.8775 7.31405 16.8789C7.72367 16.8828 8.13329 16.8802 8.54292 16.8802H8.54248Z" fill="#1C3780"/>
<path id="Vector_4" d="M5.751 7.94815C5.62253 7.94815 5.49318 7.94287 5.36514 7.94947C5.22259 7.95695 5.21599 7.88084 5.23799 7.77216C5.32862 7.32558 5.41662 6.87856 5.50594 6.43154C5.53805 6.27095 5.56929 6.11036 5.60185 5.95021C5.61857 5.86925 5.65289 5.81513 5.75188 5.81337C5.85528 5.81161 5.90104 5.85781 5.91952 5.95065C6.04095 6.56398 6.16151 7.17731 6.28514 7.7902C6.30846 7.90548 6.27414 7.95387 6.15447 7.94947C6.02027 7.94419 5.88564 7.94815 5.751 7.94815Z" fill="#1C3780"/>
<path id="Vector_5" d="M15.2763 10.0301C15.5161 10.0301 15.7559 10.0337 15.9953 10.0288C16.1273 10.0262 16.1809 10.0543 16.1198 10.1987C15.9249 10.6598 15.6666 11.0812 15.3599 11.4755C15.2939 11.5599 15.242 11.574 15.1703 11.4803C14.8628 11.0782 14.6168 10.6426 14.4294 10.1727C14.3819 10.0535 14.4351 10.0288 14.5394 10.0301C14.7849 10.0323 15.0304 10.031 15.2759 10.0306L15.2763 10.0301Z" fill="#1C3780"/>
</g>
</g>
</svg>
