<svg width="20" height="20" viewBox="0 0 20 20" fill="none" xmlns="http://www.w3.org/2000/svg">
<g id="Layer_1">
<g id="Group 1000002644">
<path id="Vector" d="M10.4889 5.73794C10.8672 5.7332 10.993 5.89529 10.8661 6.22424C9.78671 9.02104 11.2978 12.1375 14.1723 13.0407C14.451 13.1285 14.4593 13.1439 14.2838 13.3704C13.4541 14.4409 12.3676 15.0565 11.0214 15.2237C8.6706 15.5161 6.23021 13.9101 5.78602 11.2272C5.35013 8.59464 7.29592 6.05285 9.96344 5.77412C10.155 5.75395 10.3454 5.73675 10.4889 5.73794Z" fill="#1C3780"/>
<path id="Vector_2" d="M18.5407 8.14393C18.9636 8.15757 19.3894 8.04608 19.7885 7.83673C19.9415 7.75667 19.9978 7.78395 19.9996 7.96068C20.0239 10.3845 18.2922 12.1399 16.2136 12.3801C13.8391 12.6546 11.7438 11.0072 11.4491 8.63378C11.152 6.23907 12.921 4.07208 15.3407 3.86807C15.5174 3.85324 15.6941 3.84435 15.8714 3.83367C16.0458 3.82359 16.0778 3.88705 15.996 4.04242C15.6597 4.67936 15.5992 5.35483 15.77 6.04514C16.0796 7.29765 17.1993 8.14749 18.5413 8.14334L18.5407 8.14393Z" fill="#1C3780"/>
<path id="Vector_3" d="M11.4723 2.91919C11.4723 3.21453 11.4777 3.50987 11.4711 3.8052C11.4575 4.41901 11.0554 4.83414 10.4843 4.83177C9.92921 4.82939 9.52298 4.4107 9.51349 3.81173C9.50459 3.22105 9.504 2.62979 9.51349 2.03911C9.52298 1.43955 9.95531 0.992389 10.4991 1.0001C11.0412 1.00781 11.4539 1.44251 11.4699 2.03318C11.4782 2.32852 11.4711 2.62386 11.4717 2.91919H11.4723Z" fill="#1C3780"/>
<path id="Vector_4" d="M2.9396 9.5192C3.22782 9.5192 3.51604 9.51327 3.80367 9.52039C4.41569 9.53521 4.82845 9.93908 4.8243 10.5126C4.82074 11.0659 4.39968 11.4697 3.79892 11.478C3.20825 11.4863 2.61698 11.4857 2.02631 11.478C1.55662 11.4715 1.20198 11.226 1.05965 10.8328C0.920873 10.4497 1.02881 10.034 1.336 9.7665C1.54179 9.5874 1.78791 9.52335 2.053 9.52039C2.34833 9.51683 2.64367 9.51979 2.93901 9.51979L2.9396 9.5192Z" fill="#1C3780"/>
<path id="Vector_5" d="M11.4711 18.0828C11.4711 18.3858 11.48 18.6889 11.4693 18.9913C11.4515 19.4788 11.1627 19.8518 10.7363 19.9604C10.3188 20.0665 9.89184 19.8934 9.6647 19.5257C9.56032 19.3572 9.51525 19.1704 9.51407 18.9771C9.50932 18.3716 9.5022 17.7655 9.51525 17.1606C9.5283 16.5753 9.93928 16.1678 10.4884 16.1667C11.0423 16.1655 11.4415 16.5646 11.4711 17.1523C11.4753 17.2335 11.4729 17.3148 11.4729 17.396C11.4729 17.625 11.4729 17.8539 11.4729 18.0828H11.4717H11.4711Z" fill="#1C3780"/>
<path id="Vector_6" d="M4.45483 17.4856C4.0569 17.4767 3.75623 17.2994 3.59255 16.9364C3.42768 16.5699 3.45792 16.1981 3.73547 15.9016C4.20398 15.4004 4.68909 14.9124 5.18903 14.4427C5.55493 14.0993 6.13908 14.1432 6.49313 14.5008C6.84896 14.8608 6.88988 15.4396 6.54473 15.8061C6.07444 16.306 5.57984 16.7834 5.08702 17.2608C4.91682 17.4257 4.69561 17.4927 4.45424 17.485L4.45483 17.4856Z" fill="#1C3780"/>
<path id="Vector_7" d="M16.5238 17.4862C16.2581 17.4903 16.0292 17.3996 15.8418 17.2152C15.3845 16.7638 14.9243 16.3155 14.4772 15.8541C14.1006 15.4657 14.116 14.872 14.4932 14.4984C14.8721 14.123 15.4616 14.1106 15.8495 14.4877C16.3103 14.9355 16.7634 15.3909 17.2087 15.8535C17.5047 16.1607 17.561 16.5332 17.3973 16.9204C17.2378 17.2964 16.9306 17.4767 16.5238 17.4862Z" fill="#1C3780"/>
<path id="Vector_8" d="M3.54985 4.50381C3.56882 4.09698 3.76394 3.79928 4.13518 3.63797C4.49931 3.47962 4.85929 3.52647 5.1481 3.7975C5.62254 4.24287 6.08334 4.70367 6.53168 5.17514C6.88098 5.54224 6.85726 6.12164 6.50737 6.4834C6.14917 6.85405 5.55731 6.9015 5.18369 6.5516C4.69798 6.09673 4.23541 5.61696 3.77224 5.13897C3.60678 4.96817 3.54273 4.74518 3.54985 4.50381Z" fill="#1C3780"/>
</g>
</g>
</svg>
